# xmcd
#
# Track frame offsets:
#	150
#	14342
#	29288
#	49966
#	64669
#	81294
#	100063
#	112149
#	124293
#
# Disc length: 1795 seconds
#
# Revision: 1
# Processed by: cddbd v1.5.2PL0 Copyright (c) Steve Scherf et al.
# Submitted via: audiograbber 1.83.01
#
DISCID=78070109
DTITLE=Rodeo FM - The Other Side Of Summer
DYEAR=2012
DGENRE=Country
TTITLE0=Nice Nurse
TTITLE1=The Man
TTITLE2=The People On The Other Side Of Summer
TTITLE3=Bitumen Cowboy
TTITLE4=Platform No9
TTITLE5=Moon Comes Up
TTITLE6=Sober
TTITLE7=Country Monkey
TTITLE8=Nashville Nights
EXTD=
EXTT0=
EXTT1=
EXTT2=
EXTT3=
EXTT4=
EXTT5=
EXTT6=
EXTT7=
EXTT8=
PLAYORDER=
